<?xml version="1.0" encoding="UTF-8"?>
<svg version="1.1" xmlns="http://www.w3.org/2000/svg" width="2072" height="2048">
<path d="M0 0 C5.28 0 10.56 0 16 0 C16 50.16 16 100.32 16 152 C21.61265981 147.12042054 21.61265981 147.12042054 27 142 C27.66 142 28.32 142 29 142 C29 141.34 29 140.68 29 140 C30.50390625 138.51953125 30.50390625 138.51953125 32.5625 136.8125 C35.3253868 134.46720242 37.96679757 132.09170595 40.5 129.5 C42.8207309 127.1338946 45.20593818 124.91045233 47.71875 122.75 C51.91345437 119.10326989 55.96525165 115.32197842 60 111.5 C64.58705308 107.1548423 69.22880648 102.90585063 74 98.76367188 C77.40943921 95.75710585 80.70018308 92.62580314 84 89.5 C88.6307324 85.11346638 93.31258751 80.81506004 98.12988281 76.63378906 C101.71035044 73.50578784 105.18446622 70.26167599 108.6796875 67.0390625 C111.87696879 64.22933046 113.41605971 63.87605101 117.5703125 63.90234375 C118.46621094 63.90556641 119.36210938 63.90878906 120.28515625 63.91210938 C121.69087891 63.92467773 121.69087891 63.92467773 123.125 63.9375 C124.06988281 63.94201172 125.01476563 63.94652344 125.98828125 63.95117188 C128.32558387 63.96297643 130.66276061 63.97944241 133 64 C131.26142784 67.76690636 129.09741625 70.21232537 126 73 C125.34 73 124.68 73 124 73 C124 73.66 124 74.32 124 75 C122.6015625 76.375 122.6015625 76.375 120.625 78 C117.25204852 80.86045355 114.10326523 83.84869661 111 87 C108.10408042 89.93118191 105.19757429 92.76403174 102.0625 95.4375 C98.19777163 98.74008606 94.64651769 102.32396169 91.07983398 105.93969727 C87.75477719 109.29258365 84.3143038 112.43839943 80.71875 115.49609375 C79.1013418 116.91132592 77.61112625 118.38657173 76.125 119.9375 C74 122 74 122 72 122 C72 122.66 72 123.32 72 124 C71.01 124.66 70.02 125.32 69 126 C69.595543 129.77177234 71.24058489 131.80638184 73.6875 134.6875 C74.50089844 135.65816406 75.31429688 136.62882812 76.15234375 137.62890625 C76.60593262 138.16531738 77.05952148 138.70172852 77.52685547 139.25439453 C80.28884263 142.52721657 83.02097889 145.82467472 85.75 149.125 C86.34619141 149.84550537 86.94238281 150.56601074 87.55664062 151.30834961 C92.28977612 157.06179795 96.81834612 162.95239985 101.30883789 168.89599609 C105.06886925 173.84845677 108.99042219 178.61865926 113.04760742 183.32910156 C116.59990216 187.47139457 119.92746987 191.75330346 123.21362305 196.10839844 C126.75838275 200.77251872 130.53013866 205.22140599 134.421875 209.59960938 C137.01651539 212.57963018 138.7806537 215.23111144 140 219 C136.77131254 219.14584064 133.54347635 219.23424106 130.3125 219.3125 C128.94448242 219.3753418 128.94448242 219.3753418 127.54882812 219.43945312 C120.74296171 219.56319615 120.74296171 219.56319615 117.20703125 216.8828125 C116.47871094 215.93148438 115.75039062 214.98015625 115 214 C114.09709637 212.97519519 113.18791962 211.95589249 112.2734375 210.94140625 C111.30425249 209.81771832 110.33823941 208.69128873 109.375 207.5625 C108.85284912 206.95196777 108.33069824 206.34143555 107.79272461 205.71240234 C103.81337698 201.02707049 99.98239651 196.24041991 96.21191406 191.38623047 C92.74884446 186.93107153 89.20151284 182.55192251 85.625 178.1875 C81.09097274 172.64740758 76.69405931 167.02154968 72.375 161.3125 C66.83150271 153.98611454 61.02073743 146.9377235 55 140 C49.04477481 145.007803 43.32204418 150.25446065 37.60253906 155.52685547 C36.00770755 156.99291478 34.40723362 158.4525369 32.8046875 159.91015625 C32.02097778 160.62425659 32.02097778 160.62425659 31.22143555 161.3527832 C29.77723903 162.66825936 28.33201282 163.9826048 26.88671875 165.296875 C25.93410156 166.18890625 24.98148438 167.0809375 24 168 C23.40918137 168.47577484 22.81836273 168.95154968 22.2096405 169.44174194 C19.47646431 171.80437186 17.34241181 173.71645234 16.3924408 177.27746582 C16.20920865 179.89740961 16.23725499 182.43089181 16.3515625 185.0546875 C16.36383881 185.99684113 16.37611511 186.93899475 16.38876343 187.90969849 C16.43432973 190.89985938 16.5281955 193.88610071 16.625 196.875 C16.68978293 199.88476671 16.7448082 202.89456209 16.79696655 205.90457153 C16.83292166 207.77333246 16.87827643 209.64193989 16.93374634 211.51022339 C16.99223239 213.67280427 17.00133723 215.83662882 17 218 C15.17883997 219.82116003 12.69328236 219.1323508 10.2734375 219.13671875 C9.52320313 219.13285156 8.77296875 219.12898438 8 219.125 C7.24976563 219.12886719 6.49953125 219.13273437 5.7265625 219.13671875 C0.12661053 219.12661053 0.12661053 219.12661053 -1 218 C-1.10011946 215.20805459 -1.13439282 212.44077352 -1.12698364 209.64831543 C-1.12854363 208.76203571 -1.13010362 207.87575599 -1.13171089 206.9626193 C-1.13572485 203.96920364 -1.13252972 200.97583799 -1.12939453 197.98242188 C-1.1307484 195.84599274 -1.13252824 193.70956383 -1.13470459 191.57313538 C-1.13928068 185.75305934 -1.13748864 179.93300094 -1.1343255 174.11292458 C-1.13180281 168.0368304 -1.13413919 161.96073779 -1.13571167 155.88464355 C-1.13753363 145.67878954 -1.13512636 135.47294276 -1.13037109 125.26708984 C-1.12492842 113.44906838 -1.12669106 101.63106416 -1.1321975 89.81304312 C-1.13672788 79.68655038 -1.13737955 69.56006285 -1.13475883 59.43356943 C-1.13319564 53.37660343 -1.13300343 47.31964554 -1.13629532 41.26268005 C-1.13917294 35.56975429 -1.13720035 29.87685087 -1.13140106 24.18392754 C-1.13007288 22.08802261 -1.13046856 19.99211582 -1.13266373 17.89621162 C-1.13537295 15.04801009 -1.13199691 12.19988139 -1.12698364 9.35168457 C-1.12921436 8.51094375 -1.13144509 7.67020293 -1.13374341 6.80398512 C-1.11414983 1.11414983 -1.11414983 1.11414983 0 0 Z " fill="#ffffff" transform="translate(1891,915)"/>
<path d="M0 0 C3.28984491 2.7258715 4.81417088 5.53155012 5.5078125 9.76953125 C5.72316857 13.52390549 5.25643716 15.66635322 3.625 19.125 C0.31021781 22.77975985 -2.80381176 24.56375018 -7.796875 24.9765625 C-13.51389891 24.6884954 -17.02734875 21.94873774 -20.8125 17.8125 C-22.57419599 14.28910802 -22.47690495 10.64849841 -21.8125 6.8125 C-19.72487179 3.08559327 -17.02599141 0.57891563 -13.4375 -1.6875 C-8.63400164 -2.60245207 -4.47991263 -1.89151867 0 0 Z " fill="#ffffff" transform="translate(292.8125,919.1875)"/>
<path d="M0 0 C5.94 0 11.88 0 18 0 C18 68.97 18 137.94 18 209 C12.39 209 6.78 209 1 209 C-0.78620523 207.21379477 -0.12256333 204.80533412 -0.12908131 202.42691082 C-0.12616847 201.62050641 -0.12325563 200.81410201 -0.12025452 199.98326111 C-0.12110894 199.13302779 -0.12196337 198.28279448 -0.12284368 197.40679651 C-0.1245011 194.5354183 -0.11897286 191.66409751 -0.11352539 188.79272461 C-0.11324355 186.7433421 -0.11340119 184.69395948 -0.1139679 182.64457703 C-0.11425599 177.06216088 -0.10835736 171.47976602 -0.10139394 165.89735484 C-0.09516236 160.07037001 -0.09455676 154.24338474 -0.09336853 148.41639709 C-0.09025464 137.37372706 -0.08204047 126.33106687 -0.07201904 115.28840119 C-0.06085971 102.72029921 -0.05534791 90.15219677 -0.05032361 77.58409107 C-0.0398579 51.72272173 -0.022057 25.86136183 0 0 Z " fill="#ffffff" transform="translate(80,925)"/>
<path d="M0 0 C2.55787514 -0.13909895 5.10812431 -0.24023453 7.66796875 -0.3203125 C8.38658081 -0.36325439 9.10519287 -0.40619629 9.84558105 -0.45043945 C14.15772271 -0.55149565 15.57499117 -0.33978351 19.09230042 2.47221375 C22.30073284 6.30578146 22.30073284 6.30578146 23.65234375 8.45703125 C26.02426034 12.08555257 28.66452467 15.4331439 31.375 18.8125 C32.30102262 19.99488657 33.22548366 21.17849768 34.1484375 22.36328125 C37.06969169 26.09913534 40.03188695 29.80133335 43 33.5 C51.70698386 44.36140423 60.26797634 55.33454205 68.80810547 66.32739258 C72.35849623 70.89571735 75.92084283 75.45418491 79.5 80 C87.79168973 90.53443546 96.02775324 101.11301078 104.1875 111.75 C108.94745525 117.94883061 113.77161605 124.09538177 118.60888672 130.23388672 C120.90874237 133.15371048 123.20415945 136.07701893 125.5 139 C126.4166451 140.16668361 127.33331177 141.33335027 128.25 142.5 C130.08333333 144.83333333 131.91666667 147.16666667 133.75 149.5 C134.20463623 150.0784668 134.65927246 150.65693359 135.12768555 151.25292969 C136.03603428 152.40933309 136.94375858 153.56622729 137.85083008 154.72363281 C140.26463113 157.80182663 142.69150254 160.86855725 145.13671875 163.921875 C145.6471875 164.56253906 146.15765625 165.20320313 146.68359375 165.86328125 C147.66794515 167.09819482 148.65608856 168.3300976 149.6484375 169.55859375 C153 173.7750756 153 173.7750756 153 176 C153.66 176 154.32 176 155 176 C154.67 117.92 154.34 59.84 154 0 C159.94 0 165.88 0 172 0 C173.04431719 4.17726874 173.13915421 7.95557712 173.12698364 12.21891785 C173.12854363 13.05467466 173.13010362 13.89043148 173.13171089 14.75151426 C173.1357041 17.555959 173.13253775 20.36034976 173.12939453 23.16479492 C173.13074928 25.17358939 173.13252963 27.18238362 173.13470459 29.19117737 C173.13926923 34.64951744 173.13749356 40.10783863 173.1343255 45.56617904 C173.13179797 51.26989401 173.13414045 56.97360735 173.13571167 62.67732239 C173.13753176 72.25322765 173.13513077 81.8291252 173.13037109 91.4050293 C173.12492413 102.49204983 173.12669493 113.57905198 173.1321975 124.66607207 C173.13672763 134.17267298 173.13737981 143.67926835 173.13475883 153.18586999 C173.1331961 158.8694373 173.13300228 164.55299596 173.13629532 170.23656273 C173.13917273 175.57577442 173.13720075 180.91496227 173.13140106 186.25417137 C173.13007296 188.21946167 173.13046842 190.18475396 173.13266373 192.15004349 C173.13537317 194.82073425 173.13199671 197.49134735 173.12698364 200.16203308 C173.12921436 200.95014521 173.13144509 201.73825734 173.13374341 202.55025166 C173.11415015 207.88584985 173.11415015 207.88584985 172 209 C169.75593001 209.20560851 167.50265037 209.31424387 165.25 209.375 C164.01765625 209.42398437 162.7853125 209.47296875 161.515625 209.5234375 C154.92101069 208.5415727 151.74018398 202.58221946 147.875 197.5625 C146.89984245 196.30851375 145.92457917 195.05460972 144.94921875 193.80078125 C144.21131104 192.84872803 144.21131104 192.84872803 143.45849609 191.87744141 C141.21570684 188.99042276 138.95043043 186.12123611 136.6875 183.25 C133.05804483 178.63700769 129.45038652 174.00755218 125.85253906 169.36987305 C120.9270093 163.02083025 115.97742792 156.69621215 110.9375 150.4375 C106.19607087 144.54470443 101.57894927 138.56530542 96.99584961 132.54882812 C88.01985991 120.76742516 78.93713855 109.08649901 69.55175781 97.62792969 C65.5928426 92.77734496 61.82696328 87.81783403 58.1015625 82.78515625 C55.29340879 79.06356964 52.33182459 75.48075827 49.36328125 71.88671875 C46.80821809 68.76574077 44.30225481 65.61061975 41.8125 62.4375 C41.36398682 61.86612305 40.91547363 61.29474609 40.45336914 60.70605469 C37.73106512 57.23004907 35.02570321 53.74132035 32.328125 50.24609375 C31.70317139 49.43793213 31.07821777 48.62977051 30.43432617 47.79711914 C29.21059634 46.21362838 27.98929939 44.62825371 26.77075195 43.04077148 C26.20831787 42.31317627 25.64588379 41.58558105 25.06640625 40.8359375 C24.57084229 40.19188965 24.07527832 39.5478418 23.56469727 38.88427734 C21.82605015 36.79052193 19.93363098 34.91332726 18 33 C18.00092179 33.90098136 18.00184359 34.80196272 18.00279331 35.73024654 C18.02484625 57.620058 18.04141043 79.50986755 18.05181217 101.39968777 C18.05697565 111.98529394 18.06401933 122.57089272 18.07543945 133.15649414 C18.08538471 142.37937759 18.09185305 151.60225569 18.09408849 160.82514435 C18.09539587 165.71176412 18.09848342 170.59836857 18.10573006 175.48498344 C18.11248778 180.07887461 18.11461747 184.67274405 18.11310768 189.26663971 C18.11338412 190.95779348 18.11539071 192.64894794 18.11920547 194.34009743 C18.12413887 196.63878176 18.12299962 198.9373827 18.12025452 201.23606873 C18.12117631 202.52565711 18.1220981 203.81524549 18.12304783 205.14391232 C18 208 18 208 17 209 C14.3226862 209.09981214 11.67695825 209.13879875 9 209.125 C8.24976563 209.12886719 7.49953125 209.13273437 6.7265625 209.13671875 C1.12661053 209.12661053 1.12661053 209.12661053 0 208 C-0.09783696 205.31930668 -0.12993911 202.66438877 -0.12025452 199.98326111 C-0.12110894 199.13302779 -0.12196337 198.28279448 -0.12284368 197.40679651 C-0.1245011 194.5354183 -0.11897286 191.66409751 -0.11352539 188.79272461 C-0.11324355 186.7433421 -0.11340119 184.69395948 -0.1139679 182.64457703 C-0.11425599 177.06216088 -0.10835736 171.47976602 -0.10139394 165.89735484 C-0.09516236 160.07037001 -0.09455676 154.24338474 -0.09336853 148.41639709 C-0.09025464 137.37372706 -0.08204047 126.33106687 -0.07201904 115.28840119 C-0.06085971 102.72029921 -0.05534791 90.15219677 -0.05032361 77.58409107 C-0.0398579 51.72272191 -0.02225734 25.86136151 0 0 Z " fill="#ffffff" transform="translate(811,925)"/>
<path d="M0 0 C5.61 0 11.22 0 17 0 C17 11.55 17 23.1 17 35 C33.17 35 49.34 35 66 35 C66 39.62 66 44.24 66 49 C49.83 49 33.66 49 17 49 C17.09086973 67.24035238 17.09086973 67.24035238 17.20898438 85.48046875 C17.26322869 92.92429683 17.31434212 100.36805088 17.34643555 107.81201172 C17.37252258 113.81624238 17.41296362 119.82022328 17.46318626 125.82429886 C17.4798184 128.11027536 17.49135535 130.39629502 17.49761391 132.68232346 C17.50729459 135.89443644 17.535402 139.10591569 17.56762695 142.31787109 C17.56619186 143.25439514 17.56475677 144.19091919 17.5632782 145.15582275 C17.69625258 154.5822648 19.55620127 162.4709228 26.16796875 169.375 C32.70541522 175.1736732 40.31742012 175.29407312 48.640625 175.21875 C56.17890311 174.72788538 61.95353013 172.38369066 68 168 C68.66 168 69.32 168 70 168 C71.03307771 169.76371818 72.05112049 171.53625033 73.0625 173.3125 C73.63097656 174.29863281 74.19945312 175.28476563 74.78515625 176.30078125 C76 179 76 179 75 182 C63.87671993 191.30723434 48.79790451 191.86779274 35 191 C23.44775865 189.44565054 14.1926824 184.44872751 6.69140625 175.5078125 C3.8686837 171.32262109 2.34771815 166.83503403 1 162 C0.824003 161.38332584 0.648006 160.76665169 0.46667576 160.13129044 C-0.03606999 157.83526974 -0.1390935 155.76851268 -0.15821838 153.41888428 C-0.1680072 152.50465698 -0.17779602 151.59042969 -0.18788147 150.64849854 C-0.19651466 149.15525055 -0.19651466 149.15525055 -0.20532227 147.63183594 C-0.21522186 146.57786621 -0.22512146 145.52389648 -0.23532104 144.43798828 C-0.26691409 140.95347339 -0.29168492 137.46894486 -0.31640625 133.984375 C-0.33697766 131.56870163 -0.35797418 129.15303185 -0.37937927 126.73736572 C-0.43458055 120.37848819 -0.48399847 114.01957827 -0.53222656 107.66064453 C-0.58245572 101.1721712 -0.63813442 94.6837449 -0.69335938 88.1953125 C-0.80091722 75.46358035 -0.90186397 62.73180826 -1 50 C-14.86 49.505 -14.86 49.505 -29 49 C-29 44.38 -29 39.76 -29 35 C-19.43 35 -9.86 35 0 35 C0 23.45 0 11.9 0 0 Z " fill="#ffffff" transform="translate(1228,944)"/>
<path d="M0 0 C15.56632368 13.28422376 24.40199168 31.46477893 27.09375 51.59765625 C27.20205422 53.05434796 27.28356559 54.51318429 27.34375 55.97265625 C27.3953125 56.90851563 27.446875 57.844375 27.5 58.80859375 C28.16622202 81.29358708 20.69729543 102.8235345 5.23120117 119.31274414 C-9.76625204 134.48471985 -29.96640319 141.01717378 -50.96875 141.28515625 C-74.53021815 141.19440993 -93.30076167 132.30218529 -109.81640625 115.81640625 C-124.51255587 100.18581937 -130.45952249 79.31640881 -129.90234375 58.18359375 C-129.07363493 40.49622636 -123.98516177 24.74985936 -112.65625 10.97265625 C-112.11355469 10.26753906 -111.57085937 9.56242188 -111.01171875 8.8359375 C-84.48957422 -24.01022203 -31.93302689 -24.37241317 0 0 Z M-94.65625 15.97265625 C-95.2440625 16.54113281 -95.831875 17.10960937 -96.4375 17.6953125 C-109.13117992 30.80654768 -112.17767646 47.90370089 -112.07617188 65.44848633 C-111.64353639 82.38089632 -105.24362522 97.18076507 -93.4609375 109.46484375 C-80.801393 120.78438075 -64.87174429 126.63617494 -47.95703125 126.28515625 C-29.3702193 124.52545808 -14.62683487 116.55022183 -2.5234375 102.49609375 C9.69715475 86.25487375 11.20147656 65.84777412 8.9140625 46.30078125 C6.1562936 33.7035653 -0.49101844 22.88973172 -9.65625 13.97265625 C-10.18476563 13.41191406 -10.71328125 12.85117187 -11.2578125 12.2734375 C-21.4898193 2.27755393 -37.88113605 -1.83708174 -51.71875 -2.40234375 C-67.45859723 -1.72814931 -83.70617383 4.3769388 -94.65625 15.97265625 Z " fill="#ffffff" transform="translate(466.65625,994.02734375)"/>
<path d="M0 0 C14.75407632 13.21472646 18.94449164 30.96557048 20 50 C20.1852938 57.08513241 20.14107998 64.17477381 20.1328125 71.26171875 C20.13348708 73.30483512 20.13445839 75.34795141 20.13571167 77.3910675 C20.13717772 81.64638035 20.13506698 85.90167205 20.13037109 90.15698242 C20.12463435 95.62256618 20.12798443 101.08810125 20.13394356 106.55368328 C20.13754478 110.75967277 20.13641331 114.96565057 20.13381577 119.1716404 C20.13314734 121.18876972 20.13397199 123.20590009 20.13629532 125.22302818 C20.13881892 128.02591178 20.13498727 130.82871429 20.12939453 133.6315918 C20.13141876 134.46941193 20.13344299 135.30723206 20.13552856 136.17044067 C20.11427099 141.88572901 20.11427099 141.88572901 19 143 C16.30345146 143.07319621 13.63308542 143.09242537 10.9375 143.0625 C10.17888672 143.05798828 9.42027344 143.05347656 8.63867188 143.04882812 C6.75908129 143.0370068 4.87953101 143.01907078 3 143 C2.86779371 134.10546079 2.73730182 125.21089841 2.60884857 116.31630421 C2.54911681 112.18375757 2.48884976 108.05122036 2.42724609 103.91870117 C2.35608796 99.13983446 2.28677276 94.36094358 2.21875 89.58203125 C2.20759407 88.80551208 2.19643814 88.02899292 2.18494415 87.22894287 C2.04359909 77.2542718 1.93743303 67.28216685 2.04040527 57.30635071 C2.1491325 41.53514036 -0.67330801 26.28748187 -11.5546875 14.28515625 C-21.01343268 5.39212549 -33.73733014 2.6079319 -46.3125 2.6875 C-47.24312256 2.69313965 -48.17374512 2.6987793 -49.13256836 2.70458984 C-55.82345315 2.8228882 -61.77155208 3.39824327 -68 6 C-68.9796875 6.4021875 -69.959375 6.804375 -70.96875 7.21875 C-82.06167972 12.26099078 -90.98780288 19.73747374 -96 31 C-99.82361754 41.20414873 -102.12869639 51.02579554 -102.20532227 61.94287109 C-102.22017166 63.26091736 -102.22017166 63.26091736 -102.23532104 64.60559082 C-102.26677638 67.49484613 -102.29163003 70.38411785 -102.31640625 73.2734375 C-102.33698958 75.28268854 -102.35798641 77.29193539 -102.37937927 79.30117798 C-102.43445754 84.57827344 -102.48392942 89.85540706 -102.53222656 95.13256836 C-102.58254585 100.52200702 -102.63817739 105.91139057 -102.69335938 111.30078125 C-102.80076663 121.86714208 -102.90175887 132.43354997 -103 143 C-108.61 143 -114.22 143 -120 143 C-120.80771882 138.96140591 -121.1255843 135.80505092 -121.12698364 131.74884033 C-121.12980347 130.48970322 -121.13262329 129.2305661 -121.13552856 127.93327332 C-121.13358448 126.54568467 -121.13153633 125.15809617 -121.12939453 123.77050781 C-121.13075011 122.30343075 -121.13253093 120.83635403 -121.13470459 119.36927795 C-121.13925864 115.3923525 -121.13749812 111.41545301 -121.1343255 107.43852711 C-121.13179336 103.27898399 -121.13414165 99.1194431 -121.13571167 94.9598999 C-121.13753005 87.97928467 -121.13513489 80.99868003 -121.13037109 74.01806641 C-121.12492059 65.93764375 -121.12669817 57.85724629 -121.1321975 49.77682424 C-121.13672791 42.84342967 -121.13737979 35.91004271 -121.13475883 28.97664714 C-121.13319675 24.8334593 -121.13300058 20.69028334 -121.13629532 16.54709625 C-121.13917327 12.65653737 -121.13719978 8.76601119 -121.13140106 4.87545586 C-121.13007342 3.44392133 -121.13046766 2.01238406 -121.13266373 0.5808506 C-121.1353748 -1.3650236 -121.13138079 -3.31090378 -121.12698364 -5.2567749 C-121.12660662 -6.34813625 -121.12622959 -7.4394976 -121.12584114 -8.56393051 C-121 -11 -121 -11 -120 -12 C-117.3013095 -12.07325436 -114.63497444 -12.09222351 -111.9375 -12.0625 C-109.318125 -12.041875 -106.69875 -12.02125 -104 -12 C-103.67 -2.76 -103.34 6.48 -103 16 C-100.69 13.03 -98.38 10.06 -96 7 C-73.32854409 -19.3729181 -26.58237956 -20.95365313 0 0 Z " fill="#ffffff" transform="translate(656,991)"/>
<path d="M0 0 C0 4.95 0 9.9 0 15 C-2.44491599 16.22245799 -4.56127475 16.15314506 -7.25512695 16.23876953 C-21.62021798 16.7383961 -34.66314791 20.98171414 -44.8125 31.6875 C-57.5080545 47.60250134 -58.60087404 66.88151139 -58.609375 86.34765625 C-58.62439634 88.34119482 -58.64113159 90.33472113 -58.65948486 92.32823181 C-58.70272728 97.51478727 -58.72306058 102.70117504 -58.73822021 107.88787842 C-58.75794868 113.20464827 -58.79989966 118.52124103 -58.83984375 123.83789062 C-58.91467749 134.2252052 -58.96525062 144.61247926 -59 155 C-64 156 -64 156 -76 156 C-76 104.85 -76 53.7 -76 1 C-70.72 1 -65.44 1 -60 1 C-59.67 10.24 -59.34 19.48 -59 29 C-56.36 25.37 -53.72 21.74 -51 18 C-39.00260696 6.00260696 -24.43713963 0.21659972 -7.62109375 -1.01953125 C-5 -1 -5 -1 0 0 Z " fill="#ffffff" transform="translate(238,978)"/>
<path d="M0 0 C0.63679688 0.55429687 1.27359375 1.10859375 1.9296875 1.6796875 C7.02484021 6.41251824 10.50987636 12.02567808 14 18 C14.57041016 18.93392578 14.57041016 18.93392578 15.15234375 19.88671875 C22.70459644 33.38371653 24 48.93193714 24 64 C-19.89 64 -63.78 64 -109 64 C-106.27110215 78.55412188 -103.69353113 89.41603652 -95 101 C-94.40445312 101.81597656 -93.80890625 102.63195313 -93.1953125 103.47265625 C-81.86162545 116.52051305 -64.47986833 121.77149764 -47.87109375 123.28515625 C-29.38207975 123.86372404 -14.02545218 117.80406966 -0.01171875 105.91796875 C2.06256158 104.15718016 2.06256158 104.15718016 3 102 C6.44428265 103.44781793 8.36130962 105.27694609 10.75 108.125 C11.36359375 108.84945313 11.9771875 109.57390625 12.609375 110.3203125 C13.06828125 110.87460938 13.5271875 111.42890625 14 112 C11.55360118 119.99346592 3.46131661 124.90895289 -3.4140625 129.0625 C-24.78117579 140.25250064 -49.84743398 142.41310744 -72.93261719 135.4140625 C-82.76317892 132.19841182 -90.80973596 127.27387914 -99 121 C-99.94617187 120.29101562 -100.89234375 119.58203125 -101.8671875 118.8515625 C-102.57101562 118.24054688 -103.27484375 117.62953125 -104 117 C-104 116.34 -104 115.68 -104 115 C-104.66 115 -105.32 115 -106 115 C-121.537022 97.72257839 -127.8929157 76.13399385 -126.8125 53.1875 C-125.42137839 32.64771152 -116.77142085 14.01500183 -101.8125 -0.125 C-72.4855935 -24.94007473 -28.88437081 -25.66381378 0 0 Z M-96.21484375 17.59765625 C-103.63824107 27.20521889 -109 38.71762777 -109 51 C-70.72 51 -32.44 51 7 51 C4.96834442 38.11967118 4.96834442 38.11967118 0.375 26.625 C-0.14549927 25.63705444 -0.14549927 25.63705444 -0.67651367 24.62915039 C-7.9819174 11.31233114 -19.50864074 2.45715687 -34 -2 C-57.36761011 -7.95244799 -80.52757746 -0.8009894 -96.21484375 17.59765625 Z " fill="#ffffff" transform="translate(1157,996)"/>
<path d="M0 0 C14.70892698 14.34731217 22.68807777 35.30496023 23.07739258 55.69067383 C23.17065948 78.50908837 16.09820656 99.44522094 -0.140625 116.015625 C-16.63146533 131.95496837 -37.43917204 137.46924152 -59.82421875 137.11328125 C-78.41227295 136.4327808 -95.45511589 129.42428945 -109.1640625 116.84375 C-109.93105469 116.16828125 -110.69804688 115.4928125 -111.48828125 114.796875 C-124.19284354 102.97667104 -132.18227638 85.97561847 -133.38525391 68.65991211 C-134.20355794 44.48163948 -130.96959881 22.38779006 -114.1640625 3.84375 C-113.36935547 2.9465625 -113.36935547 2.9465625 -112.55859375 2.03125 C-99.09806536 -12.29254268 -80.67822427 -19.76102383 -61.2265625 -21.08984375 C-38.39058715 -21.58501158 -17.02775152 -15.71709809 0 0 Z M-98.9296875 11.3828125 C-113.06995369 26.95688191 -117.14606219 45.10451255 -116.30322266 65.61083984 C-115.30325579 81.65592226 -107.12971075 97.25875347 -95.1640625 107.84375 C-91.64373516 110.49891215 -88.0403638 112.74767597 -84.1640625 114.84375 C-83.44863281 115.24207031 -82.73320313 115.64039063 -81.99609375 116.05078125 C-67.8682471 123.12795771 -51.20822408 123.34618591 -36.2265625 119.15625 C-20.79473944 113.78198326 -7.66247103 102.34664474 -0.4140625 87.65625 C7.35703008 69.11334593 6.82953384 48.34211052 0.0859375 29.59375 C-2.2487446 24.15510357 -5.59235147 19.53264005 -9.1640625 14.84375 C-9.9271875 13.791875 -10.6903125 12.74 -11.4765625 11.65625 C-22.67261765 -0.0605519 -38.25363629 -5.64576121 -54.2265625 -6.27734375 C-71.27427804 -5.57457888 -86.31484046 -0.29263103 -98.9296875 11.3828125 Z " fill="#ffffff" transform="translate(1711.1640625,998.15625)"/>
<path d="M0 0 C0 5.28 0 10.56 0 16 C-2.18625 16.0825 -4.3725 16.165 -6.625 16.25 C-19.16180943 16.9903736 -29.93887232 20.31874755 -40 28 C-40.65613281 28.50015625 -41.31226563 29.0003125 -41.98828125 29.515625 C-52.60741036 38.83973836 -57.37873508 55.54149416 -58.37524414 69.15869141 C-58.45851045 70.70168288 -58.53197864 72.24522235 -58.59765625 73.7890625 C-58.63708847 74.66910446 -58.67652069 75.54914642 -58.71714783 76.45585632 C-59.2713719 90.76885598 -59.109715 105.10667592 -59.06866455 119.42773438 C-59.05826409 123.45116642 -59.05383185 127.47460514 -59.04882812 131.49804688 C-59.0382406 139.33204897 -59.02127187 147.16601883 -59 155 C-62.0979597 156.54897985 -65.26216552 155.83239539 -68.625 155.5625 C-69.33140625 155.51029297 -70.0378125 155.45808594 -70.765625 155.40429688 C-72.51079987 155.27458793 -74.25545725 155.13795046 -76 155 C-76.5773 114.92660943 -77.10514756 74.85413038 -77.12338257 34.77598953 C-77.12500362 32.43226967 -77.12856213 30.08855943 -77.13256836 27.74484253 C-77.13834659 24.08655478 -77.13870544 20.42830892 -77.13431931 16.77001953 C-77.13284867 14.79467771 -77.13578106 12.81933416 -77.13882446 10.84399414 C-77.13571259 9.68432129 -77.13260071 8.52464844 -77.12939453 7.32983398 C-77.12859894 6.31807602 -77.12780334 5.30631805 -77.12698364 4.26390076 C-77 2 -77 2 -76 1 C-73.3013095 0.92674564 -70.63497444 0.90777649 -67.9375 0.9375 C-65.318125 0.958125 -62.69875 0.97875 -60 1 C-59.505 15.355 -59.505 15.355 -59 30 C-57.02 27.03 -55.04 24.06 -53 21 C-39.3181538 4.27469703 -20.54109758 -0.37010987 0 0 Z " fill="#ffffff" transform="translate(1853,978)"/>
<path d="M0 0 C5.61 0 11.22 0 17 0 C17 51.15 17 102.3 17 155 C11.72 155 6.44 155 1 155 C0 154 0 154 -0.12304783 151.4718771 C-0.12212604 150.33714993 -0.12120424 149.20242277 -0.12025452 148.03330994 C-0.12162918 146.73615555 -0.12300385 145.43900116 -0.12442017 144.10253906 C-0.12088055 142.6516111 -0.11724573 141.20068337 -0.11352539 139.74975586 C-0.11324353 138.23238629 -0.11340123 136.71501658 -0.1139679 135.19764709 C-0.11425591 131.06559484 -0.10835858 126.93357137 -0.10139394 122.80152583 C-0.09516102 118.48801108 -0.09455665 114.17449573 -0.09336853 109.86097717 C-0.09025503 101.68699883 -0.08204139 93.51303379 -0.07201904 85.33906132 C-0.06085848 76.03571031 -0.0553476 66.73235868 -0.05032361 57.42900264 C-0.03985879 38.285994 -0.02205858 19.14299855 0 0 Z " fill="#ffffff" transform="translate(276,979)"/>
<path d="M0 0 C5.61 0 11.22 0 17 0 C17.49701416 1.36576172 17.99402832 2.73152344 18.50610352 4.13867188 C27.44100147 28.68217797 36.40109174 53.21385059 45.61401367 77.65454102 C48.77740171 86.05060829 51.91354764 94.45564613 55.00390625 102.87890625 C55.33093033 103.76984985 55.65795441 104.66079346 55.99488831 105.57873535 C57.56692171 109.86396886 59.13515153 114.15055055 60.69848633 118.43896484 C61.2546523 119.95803262 61.81088235 121.47707694 62.3671875 122.99609375 C62.62057388 123.69497208 62.87396027 124.3938504 63.13502502 125.11390686 C64.14344781 128.30377759 64.14344781 128.30377759 66 131 C77.68628659 100.67734896 89.26566176 70.31788148 100.66656494 39.88668823 C104.38582524 29.9596986 108.10592056 20.03321168 111.875 10.125 C112.34812622 8.87879883 112.34812622 8.87879883 112.83081055 7.60742188 C114.87551046 2.24897909 114.87551046 2.24897909 116 0 C121.28 0 126.56 0 132 0 C135.44118699 8.11658063 138.63021673 16.27233648 141.625 24.5625 C142.58619528 27.20528481 143.55062558 29.8468834 144.515625 32.48828125 C144.91199661 33.57367691 144.91199661 33.57367691 145.31637573 34.68099976 C149.29249468 45.55338243 153.33561196 56.40100556 157.375 67.25 C157.78347168 68.34799927 158.19194336 69.44599854 158.61279297 70.57727051 C162.71971893 81.61311159 166.8404715 92.64249139 171.078125 103.62890625 C171.38605988 104.42813507 171.69399475 105.22736389 172.01126099 106.05081177 C173.41717421 109.6959042 174.83014822 113.33800053 176.25537109 116.97558594 C176.74588794 118.24018795 177.23629262 119.50483348 177.7265625 120.76953125 C178.14502441 121.83792236 178.56348633 122.90631348 178.99462891 124.00708008 C180.00196061 127.00583661 180.57094352 129.87046323 181 133 C181.66 133 182.32 133 183 133 C183.1242334 132.29141846 183.2484668 131.58283691 183.37646484 130.8527832 C184.02317008 127.89399279 184.92835479 125.19641648 185.9765625 122.35546875 C186.60026733 120.65837769 186.60026733 120.65837769 187.23657227 118.92700195 C187.69475342 117.69296631 188.15293457 116.45893066 188.625 115.1875 C189.11079751 113.87141237 189.59638764 112.55524817 190.08178711 111.23901367 C194.84332691 98.34850402 199.67781382 85.48493356 204.51342773 72.62207031 C208.10314445 63.07191382 211.6642833 53.51241916 215.1875 43.9375 C220.60862703 29.22121016 226.3041309 14.61156799 232 0 C237.61 0 243.22 0 249 0 C246.61442725 7.32877334 243.98071047 14.5471845 241.28125 21.765625 C240.5942804 23.60770538 240.5942804 23.60770538 239.89343262 25.48699951 C238.92276378 28.08951538 237.9510522 30.69163856 236.97851562 33.29345703 C235.76812041 36.53170249 234.5597215 39.77068781 233.3520546 43.00995159 C227.9059712 57.61606389 222.41653541 72.2050081 216.87945557 86.77687073 C214.2005539 93.82840718 211.5339465 100.8842662 208.890625 107.94921875 C208.5824585 108.77283905 208.27429199 109.59645935 207.95678711 110.44503784 C206.7477569 113.67809541 205.53967749 116.91150658 204.33251953 120.14526367 C199.98021494 131.80017778 195.53748243 143.41588027 191 155 C189.06801527 155.04636763 187.1360264 155.09257432 185.20401001 155.13760376 C183.71547674 155.17443582 182.22715264 155.21996164 180.73901367 155.27026367 C175.47157695 155.3317204 175.47157695 155.3317204 173.42602539 153.89282227 C171.4339029 151.24859599 170.51334161 148.53626583 169.390625 145.421875 C169.14737991 144.75598358 168.90413483 144.09009216 168.65351868 143.40402222 C168.12438877 141.95350925 167.59892738 140.50165402 167.07669067 139.04864502 C165.64585849 135.07016144 164.18638936 131.10216834 162.73046875 127.1328125 C162.42620468 126.30119598 162.12194061 125.46957947 161.80845642 124.61276245 C158.49508564 115.57744081 155.03436829 106.60033877 151.5625 97.625 C150.30512248 94.37012595 149.04870963 91.11488081 147.79296875 87.859375 C147.48157959 87.05214996 147.17019043 86.24492493 146.84936523 85.41323853 C142.73447848 74.73278062 138.69445321 64.02393118 134.65454102 53.31494141 C134.38168777 52.59200897 134.10883453 51.86907654 133.82771301 51.12423706 C133.29920649 49.72322202 132.77134458 48.32196361 132.2441864 46.92044067 C131.01597272 43.66085482 129.77296129 40.40866058 128.49316406 37.16894531 C128.03393555 36.00202148 127.57470703 34.83509766 127.1015625 33.6328125 C126.69502441 32.6133252 126.28848633 31.59383789 125.86962891 30.54345703 C125 28 125 28 125 25 C124.34 25 123.68 25 123 25 C122.74034706 25.90729355 122.74034706 25.90729355 122.47544861 26.83291626 C120.66396989 33.03160903 118.56742738 39.05861523 116.25390625 45.0859375 C115.89052155 46.04095154 115.52713684 46.99596558 115.15274048 47.97991943 C113.95947755 51.11295404 112.76107395 54.24399376 111.5625 57.375 C110.72217714 59.57787262 109.88209353 61.78083652 109.04223633 63.98388672 C101.95871932 82.55005486 94.82659342 101.09774578 87.67602539 119.63818359 C87.27715622 120.67298859 86.87828705 121.70779358 86.46733093 122.7739563 C85.69685261 124.77261688 84.92580456 126.77105794 84.15412903 128.76925659 C82.46250729 133.15848805 80.78743884 137.55189673 79.16650391 141.96777344 C78.75214836 143.09347244 78.75214836 143.09347244 78.329422 144.24191284 C77.82815078 145.61011637 77.33158295 146.980057 76.84086609 148.3520813 C75.83054239 151.11171368 75.10713363 152.89286637 73 155 C70.25514407 155.14507695 67.61519457 155.18652423 64.875 155.125 C64.12089844 155.11597656 63.36679688 155.10695313 62.58984375 155.09765625 C60.72642746 155.0740687 58.86317407 155.03819719 57 155 C42.20479037 116.59880871 27.73848361 78.06765301 13.57397461 39.42944336 C11.12838392 32.76039299 8.66892925 26.09820117 6.1484375 19.45703125 C5.50213379 17.75256836 5.50213379 17.75256836 4.84277344 16.01367188 C4.06147564 13.95986739 3.27603107 11.90763284 2.48535156 9.85742188 C2.15245117 8.98279297 1.81955078 8.10816406 1.4765625 7.20703125 C1.18861816 6.4591333 0.90067383 5.71123535 0.60400391 4.94067383 C0 3 0 3 0 0 Z " fill="#ffffff" transform="translate(1315,979)"/>
</svg>
